<svg width="60" height="73" viewBox="0 0 60 73" fill="none" xmlns="http://www.w3.org/2000/svg">
<path d="M0.504262 73V0.272725H30.5469C35.992 0.272725 40.6913 1.25521 44.6449 3.22017C48.6222 5.16146 51.688 7.95502 53.8423 11.6009C55.9967 15.223 57.0739 19.5199 57.0739 24.4915C57.0739 29.5341 55.973 33.8191 53.7713 37.3466C51.5696 40.8504 48.4446 43.5256 44.3963 45.3722C40.348 47.1951 35.554 48.1065 30.0142 48.1065H11.0156V34.2571H26.7472C29.3987 34.2571 31.6122 33.9138 33.3878 33.2273C35.187 32.517 36.5483 31.4517 37.4716 30.0312C38.3949 28.5871 38.8565 26.7405 38.8565 24.4915C38.8565 22.2424 38.3949 20.384 37.4716 18.9162C36.5483 17.4247 35.187 16.312 33.3878 15.5781C31.5885 14.8205 29.375 14.4418 26.7472 14.4418H18.0824V73H0.504262ZM41.4489 39.7614L59.5597 73H40.3835L22.6278 39.7614H41.4489Z" fill="#7D4AF7"/>
</svg>
